<svg width="20" height="20" viewBox="0 0 20 20" fill="none" xmlns="http://www.w3.org/2000/svg">
<path d="M8.69559 4.45847C8.87588 4.4722 9.0506 4.52738 9.20649 4.61897L9.28335 4.66795L9.35569 4.72221C9.49579 4.83648 9.60787 4.98147 9.68348 5.14569L9.71814 5.22934V5.23009L11.0783 8.9209L14.7691 10.281L14.7706 10.2818C14.9693 10.3556 15.1444 10.4808 15.2777 10.6442L15.332 10.7166L15.3809 10.7927C15.4878 10.9744 15.5444 11.1821 15.5445 11.394C15.5445 11.6362 15.4703 11.8733 15.332 12.0722C15.1937 12.271 14.9976 12.4227 14.7706 12.507H14.7691L11.0783 13.8671L9.71814 17.5579V17.5594C9.63387 17.7864 9.48212 17.9825 9.28335 18.1208C9.08447 18.2591 8.84742 18.3333 8.60517 18.3333C8.363 18.3332 8.12655 18.2591 7.92774 18.1208C7.72889 17.9825 7.57725 17.7865 7.49295 17.5594L7.4922 17.5579L6.13207 13.8671L2.44126 12.507H2.44051C2.21351 12.4227 2.01743 12.2709 1.87912 12.0722C1.74081 11.8733 1.66663 11.6362 1.66663 11.394C1.66668 11.1518 1.74086 10.9154 1.87912 10.7166C2.01743 10.5178 2.21347 10.3661 2.44051 10.2818L2.44126 10.281L6.13207 8.9209L7.4922 5.23009L7.49295 5.22934C7.57723 5.00228 7.72893 4.80626 7.92774 4.66795L8.00385 4.61897C8.18563 4.51208 8.39321 4.4555 8.60517 4.45546L8.69559 4.45847ZM7.28422 9.36548C7.22451 9.52756 7.13056 9.67512 7.00843 9.79726C6.88629 9.9194 6.73874 10.0133 6.57665 10.0731L2.99209 11.394L6.57665 12.7157C6.69827 12.7605 6.81142 12.8247 6.91198 12.9056L7.00843 12.9915L7.09433 13.0879C7.14814 13.1549 7.19474 13.2273 7.23298 13.3042L7.28422 13.4233L8.60517 17.0071L9.92687 13.4233L9.97811 13.3042C10.0355 13.1888 10.1111 13.083 10.2027 12.9915L10.2991 12.9056C10.3995 12.8249 10.5123 12.7605 10.6337 12.7157L14.2182 11.394L10.6337 10.0731C10.4718 10.0133 10.3247 9.91926 10.2027 9.79726C10.0805 9.67512 9.98659 9.52757 9.92687 9.36548L8.60517 5.78092L7.28422 9.36548ZM15.9597 8.54715V8.0257H15.4382C15.0974 8.02555 14.8211 7.74936 14.8211 7.40856C14.8211 7.06773 15.0974 6.79156 15.4382 6.79141H15.9597V6.26997C15.9597 5.92904 16.2366 5.65207 16.5776 5.65207C16.9184 5.6522 17.1947 5.92912 17.1947 6.26997V6.79141H17.7162C18.0571 6.79141 18.3333 7.06763 18.3333 7.40856C18.3333 7.74945 18.0571 8.0257 17.7162 8.0257H17.1947V8.54715C17.1947 8.88799 16.9184 9.16416 16.5776 9.16429C16.2366 9.16429 15.9597 8.88807 15.9597 8.54715ZM12.5439 5.70029V4.60918H11.4528C11.1119 4.60918 10.8356 4.33295 10.8356 3.99203C10.8356 3.65111 11.1119 3.37489 11.4528 3.37489H12.5439V2.28377C12.5439 1.94285 12.8201 1.66663 13.161 1.66663C13.5019 1.66673 13.7782 1.94291 13.7782 2.28377V3.37489H14.8693C15.2101 3.37501 15.4864 3.65118 15.4864 3.99203C15.4864 4.33287 15.2101 4.60906 14.8693 4.60918H13.7782V5.70029C13.7782 6.04113 13.5019 6.31733 13.161 6.31744C12.8201 6.31744 12.5439 6.0412 12.5439 5.70029Z" fill="white"/>
</svg>
