<svg width="49" height="48" viewBox="0 0 49 48" fill="none" xmlns="http://www.w3.org/2000/svg">
<mask id="mask0_449_10467" style="mask-type:alpha" maskUnits="userSpaceOnUse" x="0" y="0" width="49" height="48">
<rect x="0.5" width="48" height="48" fill="#D9D9D9"/>
</mask>
<g mask="url(#mask0_449_10467)">
<path d="M24.5 35C27 35 29.125 34.125 30.875 32.375C32.625 30.625 33.5 28.5 33.5 26C33.5 23.5 32.625 21.375 30.875 19.625C29.125 17.875 27 17 24.5 17C22 17 19.875 17.875 18.125 19.625C16.375 21.375 15.5 23.5 15.5 26C15.5 28.5 16.375 30.625 18.125 32.375C19.875 34.125 22 35 24.5 35ZM24.5 31C23.1 31 21.9167 30.5167 20.95 29.55C19.9833 28.5833 19.5 27.4 19.5 26C19.5 24.6 19.9833 23.4167 20.95 22.45C21.9167 21.4833 23.1 21 24.5 21C25.9 21 27.0833 21.4833 28.05 22.45C29.0167 23.4167 29.5 24.6 29.5 26C29.5 27.4 29.0167 28.5833 28.05 29.55C27.0833 30.5167 25.9 31 24.5 31ZM8.5 42C7.4 42 6.45833 41.6083 5.675 40.825C4.89167 40.0417 4.5 39.1 4.5 38L4.5 14C4.5 12.9 4.89167 11.9583 5.675 11.175C6.45833 10.3917 7.4 10 8.5 10L14.8 10L18.5 6L30.5 6L34.2 10H40.5C41.6 10 42.5417 10.3917 43.325 11.175C44.1083 11.9583 44.5 12.9 44.5 14L44.5 38C44.5 39.1 44.1083 40.0417 43.325 40.825C42.5417 41.6083 41.6 42 40.5 42L8.5 42Z" fill="#1C1B1F"/>
</g>
</svg>
