<svg width="24" height="24" viewBox="0 0 24 24" fill="none" xmlns="http://www.w3.org/2000/svg">
<mask id="mask0_613_4554" style="mask-type:alpha" maskUnits="userSpaceOnUse" x="0" y="0" width="24" height="24">
<rect width="24" height="24" fill="#D9D9D9"/>
</mask>
<g mask="url(#mask0_613_4554)">
<path d="M12.0016 12.9385L8.7326 16.1845C8.58627 16.3295 8.43494 16.4004 8.2786 16.397C8.1221 16.3939 7.97144 16.3199 7.8266 16.175C7.68177 16.0302 7.60935 15.878 7.60935 15.7183C7.60935 15.5586 7.68177 15.4057 7.8266 15.2595L11.0631 12L7.8171 8.75605C7.6721 8.60971 7.60127 8.45671 7.6046 8.29705C7.60777 8.13755 7.68177 7.98538 7.8266 7.84055C7.97144 7.69555 8.12369 7.62305 8.28335 7.62305C8.44302 7.62305 8.59594 7.69555 8.7421 7.84055L12.0016 11.0865L15.2456 7.84055C15.3919 7.69555 15.5433 7.62305 15.6996 7.62305C15.8561 7.62305 16.0068 7.69555 16.1516 7.84055C16.2901 7.97888 16.3594 8.12946 16.3594 8.2923C16.3594 8.45513 16.2901 8.60971 16.1516 8.75605L12.9151 12L16.1611 15.269C16.3061 15.4154 16.3786 15.5667 16.3786 15.723C16.3786 15.8795 16.3061 16.0302 16.1611 16.175C16.0228 16.3135 15.8722 16.3828 15.7094 16.3828C15.5465 16.3828 15.3919 16.3135 15.2456 16.175L12.0016 12.9385Z" fill="#6846F4"/>
</g>
</svg>
