<svg width="18" height="18" viewBox="0 0 18 18" fill="none" xmlns="http://www.w3.org/2000/svg">
<mask id="mask0_1085_12707" style="mask-type:alpha" maskUnits="userSpaceOnUse" x="0" y="0" width="18" height="18">
<rect width="18" height="18" fill="#D9D9D9"/>
</mask>
<g mask="url(#mask0_1085_12707)">
<path d="M7.16244 11.6365L13.6413 5.15764C13.7528 5.04602 13.8833 4.98902 14.0328 4.98664C14.1823 4.98427 14.3153 5.04127 14.4316 5.15764C14.548 5.27402 14.6062 5.40764 14.6062 5.55852C14.6062 5.70952 14.548 5.84321 14.4316 5.95958L7.63701 12.7658C7.50138 12.9013 7.34319 12.9691 7.16244 12.9691C6.98169 12.9691 6.82351 12.9013 6.68788 12.7658L3.55663 9.63458C3.44513 9.52296 3.39013 9.39046 3.39163 9.23708C3.39301 9.08383 3.45188 8.94902 3.56826 8.83264C3.68463 8.71627 3.81826 8.65808 3.96913 8.65808C4.12013 8.65808 4.25382 8.71627 4.37019 8.83264L7.16244 11.6365Z" fill="#6846F4"/>
</g>
</svg>
