<svg width="20" height="20" viewBox="0 0 20 20" fill="none" xmlns="http://www.w3.org/2000/svg">
<mask id="mask0_24_7415" style="mask-type:alpha" maskUnits="userSpaceOnUse" x="0" y="0" width="20" height="20">
<rect width="20" height="20" fill="#D9D9D9"/>
</mask>
<g mask="url(#mask0_24_7415)">
<path d="M8.81745 11.7885L6.88162 9.85242C6.7662 9.73714 6.62114 9.67811 6.44641 9.67534C6.27183 9.6727 6.12412 9.73172 6.00329 9.85242C5.88259 9.97325 5.82225 10.1196 5.82225 10.2916C5.82225 10.4635 5.88259 10.6099 6.00329 10.7308L8.29016 13.0176C8.44086 13.1682 8.61662 13.2435 8.81745 13.2435C9.01829 13.2435 9.19405 13.1682 9.34475 13.0176L13.981 8.38138C14.0963 8.26596 14.1553 8.12089 14.1581 7.94617C14.1607 7.77158 14.1017 7.62388 13.981 7.50304C13.8602 7.38235 13.7138 7.322 13.5418 7.322C13.3699 7.322 13.2235 7.38235 13.1027 7.50304L8.81745 11.7885ZM10.0016 17.9166C8.90662 17.9166 7.87738 17.7088 6.91391 17.2933C5.95044 16.8777 5.11238 16.3137 4.39975 15.6014C3.68711 14.889 3.12287 14.0513 2.70704 13.0883C2.29134 12.1252 2.0835 11.0962 2.0835 10.0014C2.0835 8.90638 2.29127 7.87714 2.70683 6.91367C3.12238 5.9502 3.68634 5.11214 4.3987 4.3995C5.11107 3.68686 5.94877 3.12263 6.91183 2.70679C7.87489 2.2911 8.90384 2.08325 9.9987 2.08325C11.0937 2.08325 12.1229 2.29103 13.0864 2.70658C14.0499 3.12214 14.8879 3.6861 15.6006 4.39846C16.3132 5.11082 16.8775 5.94853 17.2933 6.91159C17.709 7.87464 17.9168 8.9036 17.9168 9.99846C17.9168 11.0935 17.7091 12.1227 17.2935 13.0862C16.8779 14.0496 16.314 14.8877 15.6016 15.6003C14.8893 16.313 14.0516 16.8772 13.0885 17.293C12.1254 17.7087 11.0965 17.9166 10.0016 17.9166Z" fill="#00E676"/>
</g>
</svg>
