<svg width="24" height="24" viewBox="0 0 24 24" fill="none" xmlns="http://www.w3.org/2000/svg">
<mask id="mask0_771_3453" style="mask-type:alpha" maskUnits="userSpaceOnUse" x="0" y="0" width="24" height="24">
<rect width="24" height="24" fill="#D9D9D9"/>
</mask>
<g mask="url(#mask0_771_3453)">
<path d="M6.14648 12.75C5.93398 12.75 5.7559 12.6781 5.61223 12.5342C5.4684 12.3904 5.39648 12.2122 5.39648 11.9997C5.39648 11.7871 5.4684 11.609 5.61223 11.4655C5.7559 11.3218 5.93398 11.25 6.14648 11.25H18.6465C18.859 11.25 19.0371 11.3219 19.1807 11.4658C19.3246 11.6096 19.3965 11.7878 19.3965 12.0003C19.3965 12.2129 19.3246 12.391 19.1807 12.5345C19.0371 12.6782 18.859 12.75 18.6465 12.75H6.14648Z" fill="#56585A"/>
</g>
</svg>
