<svg width="25" height="24" viewBox="0 0 25 24" fill="none" xmlns="http://www.w3.org/2000/svg">
<mask id="mask0_936_6959" style="mask-type:alpha" maskUnits="userSpaceOnUse" x="0" y="0" width="25" height="24">
<rect x="0.364258" width="24" height="24" fill="#D9D9D9"/>
</mask>
<g mask="url(#mask0_936_6959)">
<path d="M12.3643 15.4115C12.2438 15.4115 12.1316 15.3923 12.0278 15.3538C11.9239 15.3154 11.8252 15.2494 11.7315 15.1558L8.62201 12.0463C8.47334 11.8974 8.39992 11.7233 8.40176 11.524C8.40376 11.3247 8.47717 11.1474 8.62201 10.9922C8.77717 10.8372 8.95534 10.7572 9.15651 10.752C9.35784 10.7468 9.53609 10.8218 9.69126 10.977L11.6143 12.9V5.25C11.6143 5.03717 11.6861 4.859 11.8298 4.7155C11.9733 4.57183 12.1514 4.5 12.3643 4.5C12.5771 4.5 12.7553 4.57183 12.8988 4.7155C13.0424 4.859 13.1143 5.03717 13.1143 5.25V12.9L15.0373 10.977C15.1861 10.8283 15.3627 10.7549 15.567 10.7568C15.7715 10.7588 15.9513 10.8372 16.1065 10.9922C16.2513 11.1474 16.3263 11.3231 16.3315 11.5192C16.3367 11.7154 16.2617 11.8911 16.1065 12.0463L12.997 15.1558C12.9033 15.2494 12.8046 15.3154 12.7008 15.3538C12.5969 15.3923 12.4848 15.4115 12.3643 15.4115ZM6.67201 19.5C6.16684 19.5 5.73926 19.325 5.38926 18.975C5.03926 18.625 4.86426 18.1974 4.86426 17.6923V15.7308C4.86426 15.5179 4.93609 15.3398 5.07976 15.1962C5.22326 15.0526 5.40142 14.9808 5.61426 14.9808C5.82709 14.9808 6.00526 15.0526 6.14876 15.1962C6.29242 15.3398 6.36426 15.5179 6.36426 15.7308V17.6923C6.36426 17.7692 6.39634 17.8398 6.46051 17.9038C6.52451 17.9679 6.59501 18 6.67201 18H18.0565C18.1335 18 18.204 17.9679 18.268 17.9038C18.3322 17.8398 18.3643 17.7692 18.3643 17.6923V15.7308C18.3643 15.5179 18.4361 15.3398 18.5798 15.1962C18.7233 15.0526 18.9014 14.9808 19.1143 14.9808C19.3271 14.9808 19.5053 15.0526 19.6488 15.1962C19.7924 15.3398 19.8643 15.5179 19.8643 15.7308V17.6923C19.8643 18.1974 19.6893 18.625 19.3393 18.975C18.9893 19.325 18.5617 19.5 18.0565 19.5H6.67201Z" fill="#56585A"/>
</g>
</svg>
