<svg width="18" height="18" viewBox="0 0 18 18" fill="none" xmlns="http://www.w3.org/2000/svg">
<mask id="mask0_613_3916" style="mask-type:alpha" maskUnits="userSpaceOnUse" x="0" y="0" width="18" height="18">
<rect width="18" height="18" fill="#D9D9D9"/>
</mask>
<g mask="url(#mask0_613_3916)">
<path d="M3.75 13.581C3.75 13.9505 4.04953 14.25 4.41901 14.25C4.59644 14.25 4.76661 14.1795 4.89207 14.0541L12.3735 6.57262L11.4274 5.6265L3.94595 13.1079C3.82049 13.2334 3.75 13.4036 3.75 13.581ZM3.625 15.375C3.07271 15.375 2.625 14.9273 2.625 14.375V13.251C2.625 12.9857 2.73042 12.7313 2.91805 12.5437L12.5179 2.94806C12.6313 2.84506 12.7564 2.7655 12.8934 2.70938C13.0306 2.65313 13.1743 2.625 13.3247 2.625C13.4751 2.625 13.6207 2.65169 13.7616 2.70506C13.9026 2.75844 14.0274 2.84331 14.136 2.95969L15.0519 3.88706C15.1683 3.99569 15.2512 4.12069 15.3007 4.26206C15.3502 4.40344 15.375 4.54481 15.375 4.68619C15.375 4.83706 15.3493 4.981 15.2978 5.118C15.2463 5.25513 15.1643 5.38038 15.0519 5.49375L5.45622 15.0824C5.26871 15.2697 5.01447 15.375 4.74938 15.375H3.625ZM11.8922 6.10781L11.4274 5.6265L12.3735 6.57262L11.8922 6.10781Z" fill="#888A8C"/>
</g>
</svg>
