<svg width="24" height="25" viewBox="0 0 24 25" fill="none" xmlns="http://www.w3.org/2000/svg">
<mask id="mask0_613_6878" style="mask-type:alpha" maskUnits="userSpaceOnUse" x="0" y="0" width="24" height="25">
<rect y="0.0507812" width="24" height="24" fill="#D9D9D9"/>
</mask>
<g mask="url(#mask0_613_6878)">
<path d="M11.7312 13.3327L15.8042 9.25948C15.9427 9.12114 16.1168 9.05031 16.3265 9.04698C16.536 9.04381 16.7132 9.11464 16.8582 9.25948C17.003 9.40448 17.0755 9.58014 17.0755 9.78648C17.0755 9.99281 17.003 10.1685 16.8582 10.3135L12.364 14.8077C12.2703 14.9012 12.1715 14.9672 12.0677 15.0057C11.9639 15.0442 11.8517 15.0635 11.7312 15.0635C11.6107 15.0635 11.4985 15.0442 11.3947 15.0057C11.2909 14.9672 11.1921 14.9012 11.0985 14.8077L6.6042 10.3135C6.46587 10.175 6.39504 10.0009 6.3917 9.79123C6.38854 9.58173 6.45937 9.40448 6.6042 9.25948C6.7492 9.11464 6.92487 9.04223 7.1312 9.04223C7.33754 9.04223 7.5132 9.11464 7.6582 9.25948L11.7312 13.3327Z" fill="#56585A"/>
</g>
</svg>
