<svg width="25" height="24" viewBox="0 0 25 24" fill="none" xmlns="http://www.w3.org/2000/svg">
<path d="M16.7012 7H15.9512C15.9512 8.79493 14.4961 10.25 12.7012 10.25V11V11.75C15.3245 11.75 17.4512 9.62335 17.4512 7H16.7012ZM12.7012 11V10.25C10.9062 10.25 9.45117 8.79493 9.45117 7H8.70117H7.95117C7.95117 9.62335 10.0778 11.75 12.7012 11.75V11ZM8.70117 7H9.45117C9.45117 5.20507 10.9062 3.75 12.7012 3.75V3V2.25C10.0778 2.25 7.95117 4.37665 7.95117 7H8.70117ZM12.7012 3V3.75C14.4961 3.75 15.9512 5.20507 15.9512 7H16.7012H17.4512C17.4512 4.37665 15.3245 2.25 12.7012 2.25V3ZM19.7012 17.5H18.9512C18.9512 18.0294 18.5025 18.7105 17.3155 19.3041C16.1733 19.8751 14.543 20.25 12.7012 20.25V21V21.75C14.7254 21.75 16.595 21.3414 17.9863 20.6457C19.3328 19.9725 20.4512 18.9036 20.4512 17.5H19.7012ZM12.7012 21V20.25C10.8594 20.25 9.229 19.8751 8.08683 19.3041C6.89981 18.7105 6.45117 18.0294 6.45117 17.5H5.70117H4.95117C4.95117 18.9036 6.06953 19.9725 7.41601 20.6457C8.80735 21.3414 10.677 21.75 12.7012 21.75V21ZM5.70117 17.5H6.45117C6.45117 16.9706 6.89981 16.2895 8.08683 15.6959C9.229 15.1249 10.8594 14.75 12.7012 14.75V14V13.25C10.677 13.25 8.80735 13.6586 7.41601 14.3543C6.06953 15.0275 4.95117 16.0964 4.95117 17.5H5.70117ZM12.7012 14V14.75C14.543 14.75 16.1733 15.1249 17.3155 15.6959C18.5025 16.2895 18.9512 16.9706 18.9512 17.5H19.7012H20.4512C20.4512 16.0964 19.3328 15.0275 17.9863 14.3543C16.595 13.6586 14.7254 13.25 12.7012 13.25V14Z" fill="#979797"/>
</svg>
