<svg width="25" height="24" viewBox="0 0 25 24" fill="none" xmlns="http://www.w3.org/2000/svg">
<path d="M17.4741 8.17276C20.2001 9.39695 22.1016 12.1611 22.1016 15.375V18.75C22.1016 19.9926 21.1066 21 19.8793 21H13.2127C10.31 21 7.84055 19.1217 6.92535 16.5M17.4741 8.17276C16.7726 5.20566 14.1359 3 10.9905 3H9.87934C5.58379 3 2.10156 6.52576 2.10156 10.875V14.25C2.10156 15.4926 3.09649 16.5 4.32378 16.5H6.92535M17.4741 8.17276C17.5938 8.67875 17.6571 9.20688 17.6571 9.75C17.6571 13.4779 14.6724 16.5 10.9905 16.5H6.92535" stroke="#979797" stroke-width="1.5" stroke-linejoin="round"/>
</svg>
