<svg width="25" height="24" viewBox="0 0 25 24" fill="none" xmlns="http://www.w3.org/2000/svg">
<path fill-rule="evenodd" clip-rule="evenodd" d="M21.2998 10.1503V17.9668C21.2998 20.1943 19.5089 22 17.2998 22H7.2998C5.09067 22 3.2998 20.1943 3.2998 17.9668V10.1503C3.2998 8.93937 3.83945 7.7925 4.76967 7.02652L9.76966 2.90935C11.2421 1.69689 13.3575 1.69688 14.8299 2.90935L19.8299 7.02652C20.7602 7.7925 21.2998 8.93937 21.2998 10.1503ZM10.2998 17.25C9.88559 17.25 9.5498 17.5858 9.5498 18C9.5498 18.4142 9.88559 18.75 10.2998 18.75H14.2998C14.714 18.75 15.0498 18.4142 15.0498 18C15.0498 17.5858 14.714 17.25 14.2998 17.25H10.2998Z" fill="#6846F4"/>
</svg>
