<svg width="20" height="20" viewBox="0 0 20 20" fill="none" xmlns="http://www.w3.org/2000/svg">
<mask id="mask0_841_6217" style="mask-type:alpha" maskUnits="userSpaceOnUse" x="0" y="0" width="20" height="20">
<rect width="20" height="20" fill="#D9D9D9"/>
</mask>
<g mask="url(#mask0_841_6217)">
<path d="M4.42321 17.0837C4.00223 17.0837 3.64591 16.9378 3.35425 16.6462C3.06258 16.3545 2.91675 15.9982 2.91675 15.5772V4.42345C2.91675 4.00248 3.06258 3.64616 3.35425 3.35449C3.64591 3.06283 4.00223 2.91699 4.42321 2.91699H9.38321C9.56043 2.91699 9.7089 2.97685 9.82862 3.09658C9.94821 3.21616 10.008 3.36463 10.008 3.54199C10.008 3.71935 9.94821 3.86783 9.82862 3.98741C9.7089 4.10713 9.56043 4.16699 9.38321 4.16699H4.42321C4.35904 4.16699 4.30029 4.19373 4.24696 4.2472C4.19348 4.30053 4.16675 4.35928 4.16675 4.42345V15.5772C4.16675 15.6414 4.19348 15.7001 4.24696 15.7535C4.30029 15.8069 4.35904 15.8337 4.42321 15.8337H9.38321C9.56043 15.8337 9.7089 15.8935 9.82862 16.0132C9.94821 16.1328 10.008 16.2813 10.008 16.4587C10.008 16.636 9.94821 16.7845 9.82862 16.9041C9.7089 17.0238 9.56043 17.0837 9.38321 17.0837H4.42321ZM14.6811 10.6253H8.20529C8.02793 10.6253 7.87939 10.5655 7.75967 10.4457C7.64008 10.3262 7.58029 10.1777 7.58029 10.0003C7.58029 9.82297 7.64008 9.67449 7.75967 9.55491C7.87939 9.43519 8.02793 9.37533 8.20529 9.37533H14.6811L13.0786 7.77283C12.9632 7.65741 12.9042 7.51665 12.9015 7.35053C12.8989 7.18442 12.9579 7.03671 13.0786 6.90741C13.1993 6.7781 13.3457 6.7113 13.5178 6.70699C13.6897 6.70283 13.8404 6.76533 13.9697 6.89449L16.5482 9.47303C16.6988 9.62373 16.774 9.79949 16.774 10.0003C16.774 10.2012 16.6988 10.3769 16.5482 10.5276L13.9697 13.1062C13.8458 13.23 13.6986 13.2912 13.5282 13.2895C13.3578 13.288 13.2079 13.2225 13.0786 13.0932C12.9579 12.9639 12.8997 12.8155 12.904 12.6478C12.9082 12.48 12.9707 12.3358 13.0915 12.2151L14.6811 10.6253Z" fill="#56585A"/>
</g>
</svg>
