<svg width="20" height="20" viewBox="0 0 20 20" fill="none" xmlns="http://www.w3.org/2000/svg">
<mask id="mask0_613_4838" style="mask-type:alpha" maskUnits="userSpaceOnUse" x="0" y="0" width="20" height="20">
<rect width="20" height="20" fill="#D9D9D9"/>
</mask>
<g mask="url(#mask0_613_4838)">
<path d="M12.0145 16.8798L7.50008 15.3012L3.93696 16.6798C3.80918 16.7309 3.68564 16.747 3.56633 16.7281C3.44716 16.7092 3.33737 16.6683 3.23696 16.6054C3.13654 16.5425 3.05807 16.4575 3.00154 16.3504C2.94501 16.2435 2.91675 16.1208 2.91675 15.9823V5.06687C2.91675 4.89812 2.96085 4.74895 3.04904 4.61936C3.1371 4.48964 3.26078 4.39541 3.42008 4.33666L7.00654 3.1202C7.08251 3.09242 7.16161 3.07159 7.24383 3.0577C7.32605 3.04381 7.41147 3.03687 7.50008 3.03687C7.58869 3.03687 7.67411 3.04381 7.75633 3.0577C7.83855 3.07159 7.91765 3.09242 7.99362 3.1202L12.5001 4.69874L16.0632 3.3202C16.191 3.26909 16.3145 3.25298 16.4338 3.27186C16.553 3.29075 16.6628 3.33166 16.7632 3.39457C16.8636 3.45749 16.9421 3.54249 16.9986 3.64957C17.0552 3.75652 17.0834 3.87923 17.0834 4.0177V14.969C17.0834 15.1381 17.0354 15.2868 16.9393 15.415C16.843 15.5432 16.7127 15.6367 16.5482 15.6954L12.9857 16.8877C12.9077 16.9155 12.8286 16.935 12.7486 16.9462C12.6686 16.9575 12.5856 16.9631 12.4995 16.9631C12.4133 16.9631 12.3305 16.9562 12.2509 16.9423C12.1713 16.9284 12.0925 16.9076 12.0145 16.8798ZM11.8751 15.5225V5.77249L8.12508 4.46145V14.2114L11.8751 15.5225ZM13.1251 15.5225L15.8334 14.625V4.74999L13.1251 5.77249V15.5225ZM4.16675 15.25L6.87508 14.2114V4.46145L4.16675 5.37499V15.25Z" fill="#56585A"/>
</g>
</svg>
