<svg width="18" height="18" viewBox="0 0 18 18" fill="none" xmlns="http://www.w3.org/2000/svg">
<path d="M9.83105 1.875C10.0867 1.87506 10.3072 1.9602 10.4932 2.12988C10.6792 2.29942 10.7926 2.50791 10.833 2.75586L11.0166 4.16699C11.2415 4.24871 11.4449 4.34406 11.627 4.45312C11.8092 4.56222 11.9931 4.69079 12.1787 4.83887L13.5068 4.29395C13.7423 4.19007 13.9798 4.18145 14.2178 4.26758C14.4554 4.35353 14.6399 4.50377 14.7715 4.71875L15.6104 6.16992C15.7421 6.39005 15.7795 6.62339 15.7236 6.86914C15.6679 7.11471 15.5398 7.31697 15.3398 7.47656L14.1875 8.3418C14.2143 8.46279 14.2299 8.57636 14.2324 8.68164C14.2348 8.78689 14.2354 8.89325 14.2354 9C14.2354 9.10176 14.2334 9.20529 14.2285 9.31055C14.2238 9.4157 14.2065 9.5364 14.1768 9.67188L15.3066 10.5234C15.5066 10.683 15.6361 10.8853 15.6943 11.1309C15.7525 11.3766 15.7157 11.61 15.584 11.8301L14.7344 13.2881C14.6028 13.5082 14.417 13.6605 14.1768 13.7441C13.9364 13.8277 13.6985 13.8167 13.4629 13.7129L12.1787 13.1611C11.9931 13.3092 11.8036 13.4399 11.6104 13.5537C11.4172 13.6677 11.2194 13.7609 11.0166 13.833L10.833 15.2441C10.7926 15.4921 10.6792 15.7006 10.4932 15.8701C10.3072 16.0398 10.0867 16.1249 9.83105 16.125H8.16895C7.9133 16.125 7.69278 16.0398 7.50684 15.8701C7.32081 15.7006 7.20743 15.4921 7.16699 15.2441L6.9834 13.8398C6.78262 13.7726 6.57625 13.6787 6.36523 13.5576C6.15436 13.4364 5.9661 13.3063 5.7998 13.168L4.5 13.7207C4.26448 13.8245 4.0278 13.8346 3.79004 13.751C3.55204 13.6674 3.3671 13.515 3.23535 13.2949L2.38965 11.8301C2.2579 11.61 2.22049 11.3766 2.27637 11.1309C2.33209 10.8855 2.45949 10.683 2.65918 10.5234L3.7832 9.67969C3.76597 9.56833 3.75335 9.45611 3.74609 9.34375C3.73884 9.23125 3.73535 9.11846 3.73535 9.00684C3.73536 8.9003 3.73885 8.79167 3.74609 8.68164C3.75335 8.57161 3.76597 8.45093 3.7832 8.32031L2.65918 7.47656C2.45945 7.31699 2.33263 7.11317 2.2793 6.86523C2.22596 6.61728 2.26573 6.3833 2.39746 6.16309L3.23535 4.71875C3.36708 4.50361 3.5522 4.35352 3.79004 4.26758C4.02786 4.18151 4.26442 4.19009 4.5 4.29395L5.79199 4.83887C5.97276 4.6957 6.16597 4.56499 6.37109 4.44629C6.57632 4.32755 6.77846 4.23228 6.97656 4.16016L7.16699 2.75586C7.20743 2.50792 7.32082 2.29941 7.50684 2.12988C7.69278 1.9602 7.9133 1.87504 8.16895 1.875H9.83105ZM8.01367 5.00195C7.63105 5.09233 7.27712 5.23049 6.95312 5.41699C6.62903 5.60361 6.31961 5.84457 6.02539 6.13867L4.16211 5.3623L3.42383 6.6377L5.04395 7.84473C4.98145 8.02272 4.93711 8.20815 4.91211 8.40039C4.88716 8.59243 4.87501 8.7946 4.875 9.00684C4.875 9.202 4.88713 9.39363 4.91211 9.58105C4.93711 9.76854 4.97839 9.95398 5.03613 10.1367L3.42383 11.3623L4.16211 12.6377L6.01855 11.8496C6.30318 12.1419 6.60764 12.3817 6.93164 12.5684C7.25567 12.7548 7.61375 12.8981 8.00586 12.998L8.25 15H9.72363L9.99414 12.9912C10.3768 12.8912 10.7263 12.7485 11.043 12.5645C11.3598 12.3802 11.6658 12.1438 11.96 11.8545L13.8232 12.6377L14.5615 11.3623L12.9346 10.1367C12.9971 9.94249 13.04 9.75203 13.0625 9.56543C13.0851 9.37893 13.0957 9.19037 13.0957 9C13.0957 8.80475 13.0851 8.6162 13.0625 8.43457C13.04 8.25287 12.997 8.06738 12.9346 7.87793L14.5762 6.6377L13.8379 5.3623L11.9521 6.15723C11.7012 5.88899 11.4002 5.65203 11.0498 5.44629C10.6994 5.24062 10.3449 5.09439 9.98633 5.00879L9.75 3H8.26172L8.01367 5.00195ZM9.00879 6.75C9.6327 6.75005 10.1636 6.96927 10.6016 7.40723C11.0395 7.84521 11.2588 8.37605 11.2588 9C11.2588 9.62395 11.0395 10.1548 10.6016 10.5928C10.1636 11.0307 9.6327 11.25 9.00879 11.25C8.37708 11.25 7.84427 11.0307 7.41016 10.5928C6.97603 10.1548 6.75879 9.624 6.75879 9C6.75879 8.376 6.97603 7.84523 7.41016 7.40723C7.84427 6.96928 8.37708 6.75 9.00879 6.75ZM9 7.875C8.37868 7.875 7.875 8.37868 7.875 9C7.875 9.62132 8.37868 10.125 9 10.125C9.6213 10.125 10.125 9.62131 10.125 9C10.125 8.37869 9.6213 7.87502 9 7.875Z" fill="#888A8C"/>
</svg>
