<svg width="20" height="20" viewBox="0 0 20 20" fill="none" xmlns="http://www.w3.org/2000/svg">
<path d="M8.43476 3.35021C8.65111 3.36669 8.86076 3.43291 9.04783 3.54282L9.14007 3.60159L9.22687 3.6667C9.39499 3.80382 9.52949 3.97781 9.62022 4.17488L9.66181 4.27525V4.27615L11.294 8.70513L15.7229 10.3373L15.7247 10.3382C15.9633 10.4267 16.1734 10.577 16.3333 10.7731L16.3984 10.8599L16.4572 10.9513C16.5854 11.1694 16.6533 11.4185 16.6534 11.6728C16.6534 11.9635 16.5644 12.248 16.3984 12.4867C16.2324 12.7252 15.9972 12.9073 15.7247 13.0084H15.7229L11.294 14.6406L9.66181 19.0695V19.0713C9.56069 19.3438 9.37859 19.579 9.14007 19.745C8.90141 19.911 8.61695 20 8.32625 20C8.03565 19.9999 7.75191 19.9109 7.51334 19.745C7.27471 19.579 7.09274 19.3439 6.99159 19.0713L6.99069 19.0695L5.35853 14.6406L0.92956 13.0084H0.928655C0.656265 12.9073 0.420963 12.7251 0.254996 12.4867C0.0890155 12.248 0 11.9635 0 11.6728C6.93447e-05 11.3823 0.0890796 11.0985 0.254996 10.8599C0.420968 10.6214 0.656208 10.4393 0.928655 10.3382L0.92956 10.3373L5.35853 8.70513L6.99069 4.27615L6.99159 4.27525C7.09273 4.00278 7.27476 3.76757 7.51334 3.60159L7.60467 3.54282C7.8228 3.41455 8.07189 3.34665 8.32625 3.3466L8.43476 3.35021ZM6.74112 9.23863C6.66946 9.43312 6.55672 9.6102 6.41016 9.75676C6.2636 9.90333 6.08653 10.016 5.89203 10.0877L1.59056 11.6728L5.89203 13.2589C6.03797 13.3127 6.17376 13.3897 6.29442 13.4868L6.41016 13.5898L6.51325 13.7056C6.57782 13.7859 6.63374 13.8728 6.67963 13.9651L6.74112 14.108L8.32625 18.4085L9.91229 14.108L9.97378 13.9651C10.0427 13.8266 10.1334 13.6997 10.2432 13.5898L10.359 13.4868C10.4795 13.3899 10.6148 13.3126 10.7605 13.2589L15.0619 11.6728L10.7605 10.0877C10.5662 10.0161 10.3897 9.90316 10.2432 9.75676C10.0967 9.61019 9.98395 9.43313 9.91229 9.23863L8.32625 4.93716L6.74112 9.23863ZM17.1516 8.25662V7.63089H16.5259C16.117 7.63071 15.7854 7.29928 15.7853 6.89032C15.7853 6.48132 16.117 6.14992 16.5259 6.14974H17.1516V5.52401C17.1516 5.1149 17.484 4.78253 17.8931 4.78253C18.3021 4.78268 18.6337 5.115 18.6337 5.52401V6.14974H19.2594C19.6685 6.14974 20 6.48121 20 6.89032C20 7.29939 19.6685 7.63089 19.2594 7.63089H18.6337V8.25662C18.6337 8.66564 18.3021 8.99704 17.8931 8.9972C17.484 8.9972 17.1516 8.66573 17.1516 8.25662ZM13.0527 4.8404V3.53106H11.7434C11.3343 3.53106 11.0028 3.19958 11.0028 2.79049C11.0028 2.38138 11.3343 2.04991 11.7434 2.04991H13.0527V0.740573C13.0527 0.331466 13.3842 0 13.7933 0C14.2023 0.000128377 14.5339 0.331545 14.5339 0.740573V2.04991H15.8432C16.2522 2.05006 16.5838 2.38147 16.5838 2.79049C16.5838 3.1995 16.2522 3.53092 15.8432 3.53106H14.5339V4.8404C14.5338 5.24941 14.2023 5.58085 13.7933 5.58097C13.3842 5.58097 13.0527 5.24949 13.0527 4.8404Z" fill="#56585A"/>
</svg>
