<svg width="18" height="18" viewBox="0 0 18 18" fill="none" xmlns="http://www.w3.org/2000/svg">
<path d="M14.3877 3.20471C14.6887 3.2806 14.8715 3.58623 14.7959 3.88733L13.6719 8.35901L15.1865 8.37268C15.4972 8.37534 15.7478 8.62941 15.7451 8.94006C15.7422 9.25039 15.4881 9.50013 15.1777 9.49768L13.3896 9.48206L12.5215 12.9401C12.2836 13.8847 10.941 13.8847 10.7031 12.9401L9.82617 9.45081L8.41797 9.43909L7.31836 13.1071C7.04471 14.0191 5.74274 13.9896 5.51074 13.066L4.59082 9.40588L2.80273 9.39124C2.49212 9.38854 2.24246 9.13447 2.24512 8.82385C2.24798 8.51338 2.50198 8.26358 2.8125 8.26624L4.30762 8.27893L3.20508 3.88733C3.12947 3.5861 3.31209 3.28044 3.61328 3.20471C3.91448 3.12911 4.22014 3.31176 4.2959 3.61292L5.46973 8.2887L7.58301 8.30725L8.30176 5.91467L8.33008 5.83264C8.65547 5.00648 9.88323 5.06172 10.1084 5.95569L10.7051 8.33362L12.5146 8.34924L13.7051 3.61292C13.7809 3.31182 14.0865 3.12912 14.3877 3.20471ZM6.43555 12.1324L7.24609 9.42932L5.75293 9.41565L6.43555 12.1324ZM11.6123 11.941L12.2324 9.47229L10.9893 9.46155L11.6123 11.941ZM8.75488 8.31702L9.54297 8.32385L9.18359 6.89026L8.75488 8.31702Z" fill="#56585A"/>
</svg>
