<svg width="32" height="14" viewBox="0 0 32 14" fill="none" xmlns="http://www.w3.org/2000/svg">
<path d="M6.323 2.34649C6.68932 1.88912 6.9379 1.27501 6.87234 0.647461C6.3361 0.674078 5.68173 1.00061 5.30287 1.45833C4.9627 1.85031 4.66163 2.49013 4.74012 3.09137C5.34207 3.14349 5.94347 2.79103 6.323 2.34649Z" fill="black"/>
<path d="M6.86536 3.20856C5.99117 3.15658 5.2479 3.70382 4.83043 3.70382C4.41273 3.70382 3.77345 3.23475 3.08202 3.2474C2.18207 3.26059 1.34703 3.76852 0.890343 4.57636C-0.0489778 6.19245 0.642457 8.58968 1.5559 9.90589C1.99948 10.5571 2.53408 11.2741 3.2385 11.2483C3.90405 11.2222 4.16492 10.8181 4.97393 10.8181C5.78234 10.8181 6.01733 11.2483 6.72186 11.2353C7.45248 11.2222 7.90924 10.5838 8.35282 9.93196C8.8617 9.18966 9.07002 8.47291 9.08312 8.43356C9.07001 8.42053 7.67429 7.88605 7.66135 6.28339C7.64817 4.94146 8.75715 4.30317 8.80934 4.26358C8.18309 3.33901 7.20459 3.23475 6.86536 3.20856Z" fill="black"/>
<path d="M14.4779 1.39258C16.3779 1.39258 17.701 2.69995 17.701 4.60339C17.701 6.51362 16.3507 7.82778 14.4303 7.82778H12.3266V11.1673H10.8066V1.39258H14.4779V1.39258ZM12.3266 6.55425H14.0706C15.3939 6.55425 16.147 5.84308 16.147 4.61018C16.147 3.37742 15.3939 2.6729 14.0774 2.6729H12.3266V6.55425Z" fill="black"/>
<path d="M18.0977 9.14159C18.0977 7.89511 19.0545 7.12971 20.7511 7.03485L22.7053 6.91974V6.37111C22.7053 5.57853 22.1692 5.10437 21.2736 5.10437C20.4252 5.10437 19.8959 5.51072 19.7671 6.14755H18.3827C18.4642 4.86043 19.5634 3.91211 21.3278 3.91211C23.0582 3.91211 24.1642 4.82659 24.1642 6.25587V11.1669H22.7595V9.99506H22.7257C22.3119 10.7876 21.4092 11.2888 20.4728 11.2888C19.0749 11.2888 18.0977 10.4218 18.0977 9.14159ZM22.7053 8.4981V7.93588L20.9477 8.04419C20.0723 8.10521 19.577 8.49131 19.577 9.10096C19.577 9.72407 20.0927 10.1305 20.8799 10.1305C21.9045 10.1305 22.7053 9.42604 22.7053 8.4981Z" fill="black"/>
<path d="M25.4909 13.7887V12.6032C25.5993 12.6303 25.8436 12.6303 25.9658 12.6303C26.6443 12.6303 27.0108 12.3458 27.2347 11.6143C27.2347 11.6007 27.3637 11.1807 27.3637 11.1739L24.7852 4.04102H26.3729L28.1781 9.83952H28.2051L30.0104 4.04102H31.5575L28.8836 11.5397C28.2732 13.2671 27.5674 13.8225 26.0881 13.8225C25.9658 13.8225 25.5993 13.8089 25.4909 13.7887Z" fill="black"/>
</svg>
