<svg width="46" height="20" viewBox="0 0 46 20" fill="none" xmlns="http://www.w3.org/2000/svg">
<g clip-path="url(#clip0_1092_13459)">
<path fill-rule="evenodd" clip-rule="evenodd" d="M36.2842 19.5055H9.92708C4.72593 19.5055 0.508789 15.2702 0.508789 10.0467C0.508789 4.82318 4.72593 0.587891 9.92708 0.587891H36.3076C41.5088 0.587891 45.7259 4.82318 45.7259 10.0467C45.7259 15.2702 41.4854 19.5055 36.2842 19.5055Z" fill="#FFEB00"/>
<path fill-rule="evenodd" clip-rule="evenodd" d="M11.0752 5.12891C8.24034 5.12891 5.94434 6.94067 5.94434 9.19949C5.94434 10.6348 6.90491 11.9054 8.33405 12.6348L7.84205 14.4701C7.81862 14.5171 7.84205 14.5877 7.88891 14.6348C7.91234 14.6583 7.95919 14.6818 7.98262 14.6818C8.00605 14.6818 8.05291 14.6583 8.07634 14.6583L10.1615 13.2466C10.4661 13.2936 10.7706 13.3171 11.0986 13.3171C13.9335 13.3171 16.2295 11.4818 16.2295 9.24655C16.2295 6.94067 13.9335 5.12891 11.0752 5.12891Z" fill="black"/>
<path d="M20.5637 12.5881V15.2234H18.6895V5.50571H20.0015L20.2357 6.11747C20.634 5.71747 21.2432 5.29395 22.2037 5.29395C24.0312 5.29395 24.898 6.65865 24.898 8.89395C24.898 11.2234 23.5626 12.7057 21.6415 12.7057C21.2666 12.7292 20.9855 12.7057 20.5637 12.5881ZM20.5637 7.08218V11.2704C20.6575 11.2939 20.9152 11.3175 21.1729 11.3175C22.5083 11.3175 23.0237 10.3763 23.0237 8.89395C23.0237 7.59983 22.6723 6.82336 21.618 6.82336C21.2432 6.82336 20.8683 6.91747 20.5637 7.08218Z" fill="black"/>
<path d="M28.951 8.25847H30.0053V8.02317C30.0053 7.2467 29.5602 6.89376 28.8105 6.89376C28.2248 6.89376 27.4985 7.05847 26.8893 7.36435L26.3739 6.11729C27.0299 5.6467 28.0608 5.34082 28.9745 5.34082C30.755 5.34082 31.739 6.282 31.739 8.09376V12.5408H30.427L30.2396 11.9526C29.4899 12.4938 28.787 12.7291 28.1779 12.7291C26.819 12.7291 26.0459 11.9055 26.0459 10.5173C26.0459 9.03494 27.0533 8.25847 28.951 8.25847ZM30.0288 10.7291V9.43494H29.1619C28.2013 9.43494 27.7093 9.78788 27.7093 10.4702C27.7093 10.9879 27.967 11.2467 28.5293 11.2467C29.0448 11.2702 29.7008 11.0114 30.0288 10.7291Z" fill="black"/>
<path d="M37.4094 11.8108C36.7534 13.552 35.9802 14.8226 34.8322 15.5284L33.6842 14.4696C34.3402 13.8814 34.8322 13.3167 35.2305 12.5637L32.7471 5.76374L34.5979 5.26962L36.1911 10.7755L37.7608 5.24609L39.5882 5.76374L37.4094 11.8108Z" fill="black"/>
</g>
<defs>
<clipPath id="clip0_1092_13459">
<rect width="45.1937" height="18.9176" fill="white" transform="translate(0.508789 0.587891)"/>
</clipPath>
</defs>
</svg>
