<svg width="42" height="16" viewBox="0 0 42 16" fill="none" xmlns="http://www.w3.org/2000/svg">
<path d="M39.7332 4.32913L37.7781 8.80331L35.565 4.32913H33.8638L37.004 10.5365L35.711 13.4351H37.3631L41.3894 4.32913H39.7332ZM32.9218 11.2467H31.3052V10.6009C30.7181 11.1195 29.9598 11.4001 29.1781 11.388C27.2434 11.388 25.7307 9.80699 25.7307 7.78724C25.7307 5.7675 27.2434 4.1879 29.1781 4.1879C29.9598 4.17576 30.7181 4.45633 31.3052 4.97495V4.32913H32.9218V11.2467ZM31.495 7.78724C31.495 6.48325 30.5884 5.49326 29.3856 5.49326C28.1828 5.49326 27.2776 6.48325 27.2776 7.78724C27.2776 9.09123 28.1841 10.0826 29.3856 10.0826C30.5871 10.0826 31.495 9.09261 31.495 7.79273V7.78724ZM17.6973 13.4351H19.3834V10.6599C19.9602 11.1414 20.6896 11.3997 21.4396 11.388C23.3756 11.388 24.8883 9.80699 24.8883 7.78724C24.8883 5.7675 23.3756 4.1879 21.4396 4.1879C20.6582 4.17544 19.9001 4.45607 19.3138 4.97495V4.32913H17.6973V13.4351ZM21.2321 5.49326C22.4349 5.49326 23.3414 6.48325 23.3414 7.78724C23.3414 9.09123 22.4349 10.0826 21.2321 10.0826C20.0292 10.0826 19.124 9.0926 19.124 7.78724C19.124 6.48188 20.0306 5.49326 21.2321 5.49326Z" fill="black"/>
<path d="M14.6743 8.00023C14.6743 9.87235 13.9338 11.6678 12.6157 12.9916C11.2976 14.3154 9.50985 15.0591 7.64576 15.0591C5.78167 15.0591 3.99392 14.3154 2.67581 12.9916C1.35769 11.6678 0.617188 9.87235 0.617188 8.00023C0.617188 6.12811 1.35769 4.33267 2.67581 3.00889C3.99392 1.6851 5.78167 0.941406 7.64576 0.941406C9.50985 0.941406 11.2976 1.6851 12.6157 3.00889C13.9338 4.33267 14.6743 6.12811 14.6743 8.00023ZM8.82133 4.68198V8.23195L6.36379 4.68198H4.33764V11.3185H6.46619V7.76714L8.92373 11.3185H10.9498V4.68198H8.82133Z" fill="black"/>
</svg>
