<svg width="50" height="12" viewBox="0 0 50 12" fill="none" xmlns="http://www.w3.org/2000/svg">
<g clip-path="url(#clip0_1092_13526)">
<path d="M46.1942 8.09413C45.6764 8.65648 44.9665 8.98589 44.0739 8.98589C43.1813 8.98589 42.4714 8.65648 41.9536 8.09413C41.4757 7.56001 41.2016 6.87295 41.2016 6.0306C41.2016 5.18824 41.4616 4.50119 41.9396 3.96707C42.4573 3.40471 43.1813 3.0753 44.0716 3.0753C44.9619 3.0753 45.6741 3.40471 46.1919 3.96707C46.6698 4.50119 46.9439 5.18824 46.9439 6.0306C46.9439 6.87295 46.6698 7.55765 46.1919 8.09413H46.1942ZM47.9162 2.10354C46.9275 1.15766 45.5874 0.597656 44.0786 0.597656C42.5698 0.597656 41.225 1.15766 40.241 2.10354C39.2265 3.08001 38.6572 4.4706 38.6572 6.0306C38.6572 7.5906 39.2265 8.98118 40.241 9.96001C41.225 10.9059 42.5675 11.4659 44.0786 11.4659C45.5897 11.4659 46.9322 10.9059 47.9162 9.96001C48.9307 8.98354 49.5 7.59295 49.5 6.0306C49.5 4.46824 48.9307 3.08001 47.9162 2.10354Z" fill="#FF2233"/>
<path fill-rule="evenodd" clip-rule="evenodd" d="M36.4973 7.7383L36.4481 7.79948C36.1037 8.22771 35.7195 8.53124 35.2697 8.72183C34.9159 8.88654 34.4778 8.98301 34.0092 8.98301C33.0978 8.98301 32.2919 8.67712 31.7648 8.10536C31.2751 7.58536 31.001 6.84418 31.001 6.0136C31.001 5.04654 31.3852 4.2536 32.0248 3.71948C32.5449 3.2936 33.1447 3.04654 34.0116 3.04654C34.4216 3.04654 34.8198 3.12889 35.1759 3.26771C35.5977 3.43007 35.9561 3.6936 36.3146 4.0536L36.3661 4.10536L38.2264 2.5383L38.1772 2.47713C37.65 1.8183 37.0221 1.34301 36.4317 1.07007C35.7453 0.754772 34.9018 0.583008 33.953 0.583008C32.4864 0.583008 31.1884 1.07007 30.2161 1.91713C29.1009 2.90771 28.4473 4.34301 28.4473 6.0183C28.4473 7.42065 28.9182 8.67007 29.7312 9.61595C30.7292 10.7501 32.2146 11.4512 33.953 11.4512C35.0612 11.4512 35.9468 11.2371 36.6777 10.8207C37.3384 10.4465 37.8656 9.91477 38.3341 9.23007L38.3763 9.16654L36.4926 7.74301V7.73595L36.4973 7.7383Z" fill="#FF2233"/>
<path fill-rule="evenodd" clip-rule="evenodd" d="M25.556 0.856445L23.3678 5.19056L21.1936 0.856445H18.2627L22.0933 7.86586V11.1788H24.6423V7.86586L28.4729 0.856445H25.556Z" fill="#FF2233"/>
<path d="M14.4463 3.23056L15.8028 6.86586H13.1132L14.4463 3.23056ZM16.1332 0.856445H12.7478L8.92188 11.1788H11.5271L12.2558 9.18821H16.6674L17.4124 11.1788H20.0036L16.1332 0.856445Z" fill="#FF2233"/>
<path d="M6.31854 5.92881C6.13111 6.01587 5.81717 6.1194 5.37905 6.1194H3.04322V3.15234H5.25019C5.62739 3.15234 5.99288 3.20881 6.19905 3.29822C6.49191 3.42528 6.70042 3.60175 6.83396 3.84175C6.95111 4.05116 7.00734 4.30057 7.00734 4.60881C7.00734 5.27469 6.78008 5.70999 6.31385 5.93116V5.92646L6.31854 5.92881ZM8.67545 2.19705C8.30059 1.73352 7.82734 1.37352 7.23928 1.12881C6.78945 0.938221 6.10299 0.853516 5.57819 0.853516H0.634766V11.1759H3.18614V8.38293H5.57819C6.20608 8.38293 6.96282 8.2394 7.50871 7.98057C8.24437 7.63469 8.79259 7.02528 9.12059 6.30528C9.34785 5.78763 9.47905 5.21116 9.47905 4.60646C9.47905 3.70057 9.19322 2.86293 8.67545 2.1994V2.19705Z" fill="#FF2233"/>
</g>
<defs>
<clipPath id="clip0_1092_13526">
<rect width="48.865" height="10.8753" fill="white" transform="translate(0.634766 0.587891)"/>
</clipPath>
</defs>
</svg>
